<?xml version="1.0" encoding="utf-8"?>
<!-- Generator: Adobe Illustrator 21.0.0, SVG Export Plug-In . SVG Version: 6.00 Build 0)  -->
<svg version="1.1" id="Capa_1" xmlns="http://www.w3.org/2000/svg" xmlns:xlink="http://www.w3.org/1999/xlink" x="0px" y="0px"
	 viewBox="0 0 673 611" style="enable-background:new 0 0 673 611;" xml:space="preserve">
<style type="text/css">
	.st0{fill:#fff;}

#hand{
  transform-origin: center center;
  animation-name: hands;
  animation-duration:2.5s;
  animation-timing-function: ease-in-out;
  animation-fill-mode:both;
  animation-iteration-count: infinite;
  animation-direction: alternate;
}
@keyframes hands{
  0%{
    transform:  translate3d(0, 0, 0);
  }
  15%{
    transform:  translate3d(100px, 90px, 0);
  }
  30%{
    transform:  translate3d(100px, 90px, 0);
  }
  45%{
    transform:  translate3d(198px, 0, 0);
  }
  60%{
    transform:  translate3d(198px, 0, 0);
  }
  75%{
    transform:  translate3d(0, 90px, 0);
  }
  85%{
    transform:  translate3d(0, 90px, 0);
  }
}
</style>
<g>
	<circle class="st0" cx="437.1" cy="118" r="33.9"/>
	<circle class="st0" cx="335.5" cy="215.5" r="33.9"/>
	<circle class="st0" cx="335.5" cy="118" r="33.9"/>
	<circle class="st0" cx="235.9" cy="215.5" r="33.9"/>
	<circle class="st0" cx="235.9" cy="118" r="33.9"/>
	<circle class="st0" cx="335.5" cy="313" r="33.9"/>
	<circle class="st0" cx="235.9" cy="313" r="33.9"/>
	<circle class="st0" cx="437.1" cy="216" r="33.9"/>
	<circle class="st0" cx="435.5" cy="313" r="33.9"/>
</g>
<path id="hand" class="st0" d="M467.9,275.5c-8.3-49.6-45.1-54-58.1-54c-2.8,0-4.4,0.2-4.4,0.2c-11.2-22.4-27.9-28-42-28
	c-14,0-25.2,5.6-25.2,5.6c-11.2-22.4-28.3-28-42.6-28c-14.2,0-25.6,5.6-25.6,5.6v-59.2c0-22.5-16.8-33.7-33.7-33.7
	c-16.8,0-33.7,11.2-33.7,33.7c0,44.9,0,148.7,0,148.7c-77.8,19-6.9,135.7,15.6,170.8v43.1c0,9.5,9.5,18.1,19,18.1h178
	c9.5,0,15.6-8.6,15.6-18.1v-40.9C472.3,374.7,475,318,467.9,275.5z"/>
</svg>
