<?xml version="1.0" encoding="utf-8"?>
<!-- Generator: Adobe Illustrator 21.0.0, SVG Export Plug-In . SVG Version: 6.00 Build 0)  -->
<svg version="1.1" id="Capa_1" xmlns="http://www.w3.org/2000/svg" xmlns:xlink="http://www.w3.org/1999/xlink" x="0px" y="0px"
	 viewBox="0 0 486.8 486.8" style="enable-background:new 0 0 486.8 486.8;" xml:space="preserve">
  <style type="text/css">
    path{fill:#fff;}
    
#star1{
  transform-origin: center center;
  animation-name: star;
  animation-duration:0.5s;
  animation-timing-function: linear;
  animation-fill-mode:both;
  animation-direction: alternate;
  animation-iteration-count: infinite;
}
#star2{
  transform-origin: center center;
  animation-name: star;
  animation-duration:1s;
  animation-delay:0.5s;
  animation-timing-function: linear;
  animation-fill-mode:both;
  animation-direction: alternate;
  animation-iteration-count: infinite;
}
#star3{
  transform-origin: center center;
  animation-name: star;
  animation-duration:1s;
  animation-delay:1s;
  animation-timing-function: linear;
  animation-fill-mode:both;
  animation-direction: alternate;
  animation-iteration-count: infinite;
}
#star4{
  transform-origin: center center;
  animation-name: star;
  animation-duration:1s;
  animation-delay:1.5s;
  animation-timing-function: linear;
  animation-fill-mode:both;
  animation-direction: alternate;
  animation-iteration-count: infinite;
}
#cade{
  transform-origin: center center;
  animation-name: cade;
  animation-duration:2.3s;
  animation-delay:1.5s;
  animation-timing-function: linear;
  animation-fill-mode:both;
  animation-direction: alternate;
  animation-iteration-count: infinite;
}
@keyframes star{
  from{
    opacity:0;
    transform:scale(0);
  }
  to{
    opacity:1;
    transform:scale(1);
  }
  
}

@keyframes cade{
  from{
    transform:translate3d(0, 0, 0);
  }
  50%{
    transform:translate3d(0, 20px, 0);
  }
  75%{
    transform:translate3d(0, 25px, 0);
  }
  to{
    transform:translate3d(0, 0, 0);
  }
}
  </style>
<g>
	<g>
		<path id="star1" d="M80,370.4c-1.9-3.3-6.2-4.4-9.5-2.5L53.1,378v-20.1c0-3.8-3.1-6.9-6.9-6.9c-3.8,0-6.9,3.1-6.9,6.9V378
			l-17.4-10.1c-3.3-1.9-7.6-0.8-9.5,2.5s-0.8,7.6,2.5,9.5l17.5,10.2l-17.5,10.2c-3.3,1.9-4.4,6.2-2.5,9.5s6.2,4.4,9.5,2.5l17.4-10.1
			v20.1c0,3.8,3.1,6.9,6.9,6.9c3.8,0,6.9-3.1,6.9-6.9v-20.1l17.4,10.1c3.3,1.9,7.6,0.8,9.5-2.5s0.8-7.6-2.5-9.5L60,390.1l17.5-10.2
			C80.8,377.9,82,373.7,80,370.4z"/>
		<path id="star2" d="M143.9,409.7c1.9,3.3,6.2,4.4,9.5,2.5l17.4-10.1v20.1c0,3.8,3.1,6.9,6.9,6.9c3.8,0,6.9-3.1,6.9-6.9v-20.1
			l17.4,10.1c3.3,1.9,7.6,0.8,9.5-2.5s0.8-7.6-2.5-9.5L191.5,390l17.5-10.2c3.3-1.9,4.4-6.2,2.5-9.5s-6.2-4.4-9.5-2.5l-17.4,10.1
			v-20.1c0-3.8-3.1-6.9-6.9-6.9c-3.8,0-6.9,3.1-6.9,6.9v20.1l-17.4-10c-3.3-1.9-7.6-0.8-9.5,2.5s-0.8,7.6,2.5,9.5l17.5,10.2
			l-17.5,10.1C143.1,402.1,142,406.4,143.9,409.7z"/>
		<path d="M131.5,462.1v12.2c0,2.9,2.4,5.3,5.3,5.3h81.9c2.9,0,5.3-2.4,5.3-5.3v-12.2c0-2.9-2.4-5.3-5.3-5.3h-81.9
			C133.8,456.8,131.5,459.2,131.5,462.1z"/>
		<path d="M198.4,93.5 M293.5,121h-70v0.1h-64.7c-12,0.4-21.7,10.1-21.7,22.2v123c0,12.3,10,22.3,22.3,22.3H331
			c12.3,0,22.3-10,22.3-22.3V143.4c0.1-12.3-9.9-22.3-22.2-22.3h-0.6 M258.5,210.4c-1.7,1.2-2.2,2.5-2.2,4.5c0.1,9,0.1,18,0,27.1
			l0,0c0.2,3.8-1.7,7.4-5.1,9.1c-7.9,4-15.8-1.6-15.8-9.1c0,0,0,0,0-0.1c0-9,0-18.1,0-27.1c0-1.8-0.4-3.1-2-4.3
			c-8.2-6-10.9-16.3-6.8-25.4c4-8.8,13.7-14,22.8-12.1c10.2,2,17.3,10.3,17.4,20.4C267.1,200.5,264.2,206.3,258.5,210.4z"/>
		<path d="M262.9,462.1v12.2c0,2.9,2.4,5.3,5.3,5.3h81.9c2.9,0,5.3-2.4,5.3-5.3v-12.2c0-2.9-2.4-5.3-5.3-5.3h-81.9
			C265.3,456.8,262.9,459.2,262.9,462.1z"/>
		<path id="star3" d="M275.3,409.7c1.9,3.3,6.2,4.4,9.5,2.5l17.4-10.1v20.1c0,3.8,3.1,6.9,6.9,6.9s6.9-3.1,6.9-6.9v-20.1l17.4,10.1
			c3.3,1.9,7.6,0.8,9.5-2.5s0.8-7.6-2.5-9.5L322.9,390l17.5-10.2c3.3-1.9,4.4-6.2,2.5-9.5s-6.2-4.4-9.5-2.5L316,377.9v-20.1
			c0-3.8-3.1-6.9-6.9-6.9s-6.9,3.1-6.9,6.9v20.1l-17.4-10.1c-3.3-1.9-7.6-0.8-9.5,2.5s-0.8,7.6,2.5,9.5l17.5,10.2l-17.5,10.2
			C274.5,402.1,273.4,406.4,275.3,409.7z"/>
		<path d="M481.5,456.8h-81.9c-2.9,0-5.3,2.4-5.3,5.3v12.2c0,2.9,2.4,5.3,5.3,5.3h81.9c2.9,0,5.3-2.4,5.3-5.3v-12.2
			C486.8,459.2,484.4,456.8,481.5,456.8z"/>
		<path d="M5.3,479.6h81.9c2.9,0,5.3-2.4,5.3-5.3v-12.2c0-2.9-2.4-5.3-5.3-5.3H5.3c-2.9,0-5.3,2.4-5.3,5.3v12.2
			C0,477.2,2.4,479.6,5.3,479.6z"/>
		<path id="star4" d="M406.8,409.7c1.9,3.3,6.2,4.4,9.5,2.5l17.4-10.1v20.1c0,3.8,3.1,6.9,6.9,6.9s6.9-3.1,6.9-6.9v-20.1l17.4,10.1
			c3.3,1.9,7.6,0.8,9.5-2.5s0.8-7.6-2.5-9.5L454.4,390l17.5-10.2c3.3-1.9,4.4-6.2,2.5-9.5s-6.2-4.4-9.5-2.5l-17.4,10.1v-20.1
			c0-3.8-3.1-6.9-6.9-6.9s-6.9,3.1-6.9,6.9v20.1l-17.4-10.1c-3.3-1.9-7.6-0.8-9.5,2.5s-0.8,7.6,2.5,9.5l17.5,10.2l-17.5,10.2
			C406,402.1,404.8,406.4,406.8,409.7z"/>
	</g>
</g>
<path id="cade" d="M332.2,124.6h-0.6V97.4c0-47.3-38.7-87.5-85.9-86.7c-45.9,0.8-83.1,38.4-83.1,84.5v2.6c0,3.9,3.2,7.1,7.1,7.1
	h22.7c3.9,0,7.1-3.2,7.1-7.1V97c0-25.4,19.1-47.7,44.5-49.3c27.6-1.7,50.6,20.2,50.6,47.4v29.4L332.2,124.6z"/>
</svg>
